<?xml version="1.0" encoding="UTF-8"?><svg id="Layer_2" xmlns="http://www.w3.org/2000/svg" xmlns:xlink="http://www.w3.org/1999/xlink" viewBox="0 0 1080 1920"><defs><style>.cls-1,.cls-2{fill:none;}.cls-2{stroke:#3c5a1d;stroke-miterlimit:10;stroke-width:1.5px;}.cls-3{clip-path:url(#clippath);}</style><clipPath id="clippath"><rect class="cls-1" width="1080" height="1920"/></clipPath></defs><g id="Layer_1-2"><g class="cls-3"><path class="cls-2" d="M-282.9,1.9c0-82.8,67.2-150,150-150S17.1-81,17.1,1.9"/><path class="cls-2" d="M17.1,1.9c0-82.8,67.2-150,150-150S317.1-81,317.1,1.9"/><path class="cls-2" d="M317.1,1.9c0-82.8,67.2-150,150-150S617.1-81,617.1,1.9"/><path class="cls-2" d="M617.1,1.9c0-82.8,67.2-150,150-150S917.1-81,917.1,1.9"/><path class="cls-2" d="M917.1,1.9c0-82.8,67.2-150,150-150S1217.1-81,1217.1,1.9"/><path class="cls-2" d="M-132.9,1.9c0-82.8,67.2-150,150-150S167.1-81,167.1,1.9"/><path class="cls-2" d="M167.1,1.9c0-82.8,67.2-150,150-150S467.1-81,467.1,1.9"/><path class="cls-2" d="M467.1,1.9c0-82.8,67.2-150,150-150S767.1-81,767.1,1.9"/><path class="cls-2" d="M767.1,1.9c0-82.8,67.2-150,150-150S1067.1-81,1067.1,1.9"/><path class="cls-2" d="M1067.1,1.9c0-82.8,67.2-150,150-150S1367.1-81,1367.1,1.9"/><path class="cls-2" d="M-132.9,151.9C-132.9,69-65.7,1.9,17.1,1.9s150,67.2,150,150"/><path class="cls-2" d="M167.1,151.9C167.1,69,234.3,1.9,317.1,1.9s150,67.2,150,150"/><path class="cls-2" d="M467.1,151.9c0-82.8,67.2-150,150-150s150,67.2,150,150"/><path class="cls-2" d="M767.1,151.9c0-82.8,67.2-150,150-150s150,67.2,150,150"/><path class="cls-2" d="M1067.1,151.9c0-82.8,67.2-150,150-150s150,67.2,150,150"/><path class="cls-2" d="M-282.9,151.9C-282.9,69-215.7,1.9-132.9,1.9S17.1,69,17.1,151.9"/><path class="cls-2" d="M17.1,151.9C17.1,69,84.3,1.9,167.1,1.9s150,67.2,150,150"/><path class="cls-2" d="M317.1,151.9C317.1,69,384.3,1.9,467.1,1.9s150,67.2,150,150"/><path class="cls-2" d="M617.1,151.9c0-82.8,67.2-150,150-150s150,67.2,150,150"/><path class="cls-2" d="M917.1,151.9c0-82.8,67.2-150,150-150s150,67.2,150,150"/><path class="cls-2" d="M-282.9,301.9c0-82.8,67.2-150,150-150S17.1,219,17.1,301.9"/><path class="cls-2" d="M17.1,301.9c0-82.8,67.2-150,150-150s150,67.2,150,150"/><path class="cls-2" d="M317.1,301.9c0-82.8,67.2-150,150-150s150,67.2,150,150"/><path class="cls-2" d="M617.1,301.9c0-82.8,67.2-150,150-150s150,67.2,150,150"/><path class="cls-2" d="M917.1,301.9c0-82.8,67.2-150,150-150s150,67.2,150,150"/><path class="cls-2" d="M-132.9,301.9c0-82.8,67.2-150,150-150s150,67.2,150,150"/><path class="cls-2" d="M167.1,301.9c0-82.8,67.2-150,150-150s150,67.2,150,150"/><path class="cls-2" d="M467.1,301.9c0-82.8,67.2-150,150-150s150,67.2,150,150"/><path class="cls-2" d="M767.1,301.9c0-82.8,67.2-150,150-150s150,67.2,150,150"/><path class="cls-2" d="M1067.1,301.9c0-82.8,67.2-150,150-150s150,67.2,150,150"/><path class="cls-2" d="M-132.9,451.9c0-82.8,67.2-150,150-150s150,67.2,150,150"/><path class="cls-2" d="M167.1,451.9c0-82.8,67.2-150,150-150s150,67.2,150,150"/><path class="cls-2" d="M467.1,451.9c0-82.8,67.2-150,150-150s150,67.2,150,150"/><path class="cls-2" d="M767.1,451.9c0-82.8,67.2-150,150-150s150,67.2,150,150"/><path class="cls-2" d="M1067.1,451.9c0-82.8,67.2-150,150-150s150,67.2,150,150"/><path class="cls-2" d="M-282.9,451.9c0-82.8,67.2-150,150-150S17.1,369,17.1,451.9"/><path class="cls-2" d="M17.1,451.9c0-82.8,67.2-150,150-150s150,67.2,150,150"/><path class="cls-2" d="M317.1,451.9c0-82.8,67.2-150,150-150s150,67.2,150,150"/><path class="cls-2" d="M617.1,451.9c0-82.8,67.2-150,150-150s150,67.2,150,150"/><path class="cls-2" d="M917.1,451.9c0-82.8,67.2-150,150-150s150,67.2,150,150"/><path class="cls-2" d="M-282.9,601.9c0-82.8,67.2-150,150-150S17.1,519,17.1,601.9"/><path class="cls-2" d="M17.1,601.9c0-82.8,67.2-150,150-150s150,67.2,150,150"/><path class="cls-2" d="M317.1,601.9c0-82.8,67.2-150,150-150s150,67.2,150,150"/><path class="cls-2" d="M617.1,601.9c0-82.8,67.2-150,150-150s150,67.2,150,150"/><path class="cls-2" d="M917.1,601.9c0-82.8,67.2-150,150-150s150,67.2,150,150"/><path class="cls-2" d="M-132.9,601.9c0-82.8,67.2-150,150-150s150,67.2,150,150"/><path class="cls-2" d="M167.1,601.9c0-82.8,67.2-150,150-150s150,67.2,150,150"/><path class="cls-2" d="M467.1,601.9c0-82.8,67.2-150,150-150s150,67.2,150,150"/><path class="cls-2" d="M767.1,601.9c0-82.8,67.2-150,150-150s150,67.2,150,150"/><path class="cls-2" d="M1067.1,601.9c0-82.8,67.2-150,150-150s150,67.2,150,150"/><path class="cls-2" d="M-132.9,751.9c0-82.8,67.2-150,150-150s150,67.2,150,150"/><path class="cls-2" d="M167.1,751.9c0-82.8,67.2-150,150-150s150,67.2,150,150"/><path class="cls-2" d="M467.1,751.9c0-82.8,67.2-150,150-150s150,67.2,150,150"/><path class="cls-2" d="M767.1,751.9c0-82.8,67.2-150,150-150s150,67.2,150,150"/><path class="cls-2" d="M1067.1,751.9c0-82.8,67.2-150,150-150s150,67.2,150,150"/><path class="cls-2" d="M-282.9,751.9c0-82.8,67.2-150,150-150S17.1,669,17.1,751.9"/><path class="cls-2" d="M17.1,751.9c0-82.8,67.2-150,150-150s150,67.2,150,150"/><path class="cls-2" d="M317.1,751.9c0-82.8,67.2-150,150-150s150,67.2,150,150"/><path class="cls-2" d="M617.1,751.9c0-82.8,67.2-150,150-150s150,67.2,150,150"/><path class="cls-2" d="M917.1,751.9c0-82.8,67.2-150,150-150s150,67.2,150,150"/><path class="cls-2" d="M-282.9,901.9c0-82.8,67.2-150,150-150S17.1,819,17.1,901.9"/><path class="cls-2" d="M17.1,901.9c0-82.8,67.2-150,150-150s150,67.2,150,150"/><path class="cls-2" d="M317.1,901.9c0-82.8,67.2-150,150-150s150,67.2,150,150"/><path class="cls-2" d="M617.1,901.9c0-82.8,67.2-150,150-150s150,67.2,150,150"/><path class="cls-2" d="M917.1,901.9c0-82.8,67.2-150,150-150s150,67.2,150,150"/><path class="cls-2" d="M-132.9,901.9c0-82.8,67.2-150,150-150s150,67.2,150,150"/><path class="cls-2" d="M167.1,901.9c0-82.8,67.2-150,150-150s150,67.2,150,150"/><path class="cls-2" d="M467.1,901.9c0-82.8,67.2-150,150-150s150,67.2,150,150"/><path class="cls-2" d="M767.1,901.9c0-82.8,67.2-150,150-150s150,67.2,150,150"/><path class="cls-2" d="M1067.1,901.9c0-82.8,67.2-150,150-150s150,67.2,150,150"/><path class="cls-2" d="M-132.9,1051.9c0-82.8,67.2-150,150-150s150,67.2,150,150"/><path class="cls-2" d="M167.1,1051.9c0-82.8,67.2-150,150-150s150,67.2,150,150"/><path class="cls-2" d="M467.1,1051.9c0-82.8,67.2-150,150-150s150,67.2,150,150"/><path class="cls-2" d="M767.1,1051.9c0-82.8,67.2-150,150-150s150,67.2,150,150"/><path class="cls-2" d="M1067.1,1051.9c0-82.8,67.2-150,150-150s150,67.2,150,150"/><path class="cls-2" d="M-282.9,1051.9c0-82.8,67.2-150,150-150s150,67.2,150,150"/><path class="cls-2" d="M17.1,1051.9c0-82.8,67.2-150,150-150s150,67.2,150,150"/><path class="cls-2" d="M317.1,1051.9c0-82.8,67.2-150,150-150s150,67.2,150,150"/><path class="cls-2" d="M617.1,1051.9c0-82.8,67.2-150,150-150s150,67.2,150,150"/><path class="cls-2" d="M917.1,1051.9c0-82.8,67.2-150,150-150s150,67.2,150,150"/><path class="cls-2" d="M-282.9,1201.9c0-82.8,67.2-150,150-150s150,67.2,150,150"/><path class="cls-2" d="M17.1,1201.9c0-82.8,67.2-150,150-150s150,67.2,150,150"/><path class="cls-2" d="M317.1,1201.9c0-82.8,67.2-150,150-150s150,67.2,150,150"/><path class="cls-2" d="M617.1,1201.9c0-82.8,67.2-150,150-150s150,67.2,150,150"/><path class="cls-2" d="M917.1,1201.9c0-82.8,67.2-150,150-150s150,67.2,150,150"/><path class="cls-2" d="M-132.9,1201.9c0-82.8,67.2-150,150-150s150,67.2,150,150"/><path class="cls-2" d="M167.1,1201.9c0-82.8,67.2-150,150-150s150,67.2,150,150"/><path class="cls-2" d="M467.1,1201.9c0-82.8,67.2-150,150-150s150,67.2,150,150"/><path class="cls-2" d="M767.1,1201.9c0-82.8,67.2-150,150-150s150,67.2,150,150"/><path class="cls-2" d="M1067.1,1201.9c0-82.8,67.2-150,150-150s150,67.2,150,150"/><path class="cls-2" d="M-132.9,1351.9c0-82.8,67.2-150,150-150s150,67.2,150,150"/><path class="cls-2" d="M167.1,1351.9c0-82.8,67.2-150,150-150s150,67.2,150,150"/><path class="cls-2" d="M467.1,1351.9c0-82.8,67.2-150,150-150s150,67.2,150,150"/><path class="cls-2" d="M767.1,1351.9c0-82.8,67.2-150,150-150s150,67.2,150,150"/><path class="cls-2" d="M1067.1,1351.9c0-82.8,67.2-150,150-150s150,67.2,150,150"/><path class="cls-2" d="M-282.9,1351.9c0-82.8,67.2-150,150-150s150,67.2,150,150"/><path class="cls-2" d="M17.1,1351.9c0-82.8,67.2-150,150-150s150,67.2,150,150"/><path class="cls-2" d="M317.1,1351.9c0-82.8,67.2-150,150-150s150,67.2,150,150"/><path class="cls-2" d="M617.1,1351.9c0-82.8,67.2-150,150-150s150,67.2,150,150"/><path class="cls-2" d="M917.1,1351.9c0-82.8,67.2-150,150-150s150,67.2,150,150"/><path class="cls-2" d="M-282.9,1501.9c0-82.8,67.2-150,150-150s150,67.2,150,150"/><path class="cls-2" d="M17.1,1501.9c0-82.8,67.2-150,150-150s150,67.2,150,150"/><path class="cls-2" d="M317.1,1501.9c0-82.8,67.2-150,150-150s150,67.2,150,150"/><path class="cls-2" d="M617.1,1501.9c0-82.8,67.2-150,150-150s150,67.2,150,150"/><path class="cls-2" d="M917.1,1501.9c0-82.8,67.2-150,150-150s150,67.2,150,150"/><path class="cls-2" d="M-132.9,1501.9c0-82.8,67.2-150,150-150s150,67.2,150,150"/><path class="cls-2" d="M167.1,1501.9c0-82.8,67.2-150,150-150s150,67.2,150,150"/><path class="cls-2" d="M467.1,1501.9c0-82.8,67.2-150,150-150s150,67.2,150,150"/><path class="cls-2" d="M767.1,1501.9c0-82.8,67.2-150,150-150s150,67.2,150,150"/><path class="cls-2" d="M1067.1,1501.9c0-82.8,67.2-150,150-150s150,67.2,150,150"/><path class="cls-2" d="M-132.9,1651.9c0-82.8,67.2-150,150-150s150,67.2,150,150"/><path class="cls-2" d="M167.1,1651.9c0-82.8,67.2-150,150-150s150,67.2,150,150"/><path class="cls-2" d="M467.1,1651.9c0-82.8,67.2-150,150-150s150,67.2,150,150"/><path class="cls-2" d="M767.1,1651.9c0-82.8,67.2-150,150-150s150,67.2,150,150"/><path class="cls-2" d="M1067.1,1651.9c0-82.8,67.2-150,150-150s150,67.2,150,150"/><path class="cls-2" d="M-282.9,1651.9c0-82.8,67.2-150,150-150s150,67.2,150,150"/><path class="cls-2" d="M17.1,1651.9c0-82.8,67.2-150,150-150s150,67.2,150,150"/><path class="cls-2" d="M317.1,1651.9c0-82.8,67.2-150,150-150s150,67.2,150,150"/><path class="cls-2" d="M617.1,1651.9c0-82.8,67.2-150,150-150s150,67.2,150,150"/><path class="cls-2" d="M917.1,1651.9c0-82.8,67.2-150,150-150s150,67.2,150,150"/><path class="cls-2" d="M-282.9,1801.9c0-82.8,67.2-150,150-150s150,67.2,150,150"/><path class="cls-2" d="M17.1,1801.9c0-82.8,67.2-150,150-150s150,67.2,150,150"/><path class="cls-2" d="M317.1,1801.9c0-82.8,67.2-150,150-150s150,67.2,150,150"/><path class="cls-2" d="M617.1,1801.9c0-82.8,67.2-150,150-150s150,67.2,150,150"/><path class="cls-2" d="M917.1,1801.9c0-82.8,67.2-150,150-150s150,67.2,150,150"/><path class="cls-2" d="M-132.9,1801.9c0-82.8,67.2-150,150-150s150,67.2,150,150"/><path class="cls-2" d="M167.1,1801.9c0-82.8,67.2-150,150-150s150,67.2,150,150"/><path class="cls-2" d="M467.1,1801.9c0-82.8,67.2-150,150-150s150,67.2,150,150"/><path class="cls-2" d="M767.1,1801.9c0-82.8,67.2-150,150-150s150,67.2,150,150"/><path class="cls-2" d="M1067.1,1801.9c0-82.8,67.2-150,150-150s150,67.2,150,150"/><path class="cls-2" d="M-132.9,1951.9c0-82.8,67.2-150,150-150s150,67.2,150,150"/><path class="cls-2" d="M167.1,1951.9c0-82.8,67.2-150,150-150s150,67.2,150,150"/><path class="cls-2" d="M467.1,1951.9c0-82.8,67.2-150,150-150s150,67.2,150,150"/><path class="cls-2" d="M767.1,1951.9c0-82.8,67.2-150,150-150s150,67.2,150,150"/><path class="cls-2" d="M1067.1,1951.9c0-82.8,67.2-150,150-150s150,67.2,150,150"/><path class="cls-2" d="M-282.9,1951.9c0-82.8,67.2-150,150-150s150,67.2,150,150"/><path class="cls-2" d="M17.1,1951.9c0-82.8,67.2-150,150-150s150,67.2,150,150"/><path class="cls-2" d="M317.1,1951.9c0-82.8,67.2-150,150-150s150,67.2,150,150"/><path class="cls-2" d="M617.1,1951.9c0-82.8,67.2-150,150-150s150,67.2,150,150"/><path class="cls-2" d="M917.1,1951.9c0-82.8,67.2-150,150-150s150,67.2,150,150"/><line class="cls-2" x1="17.1" y1="-383.1" x2="17.1" y2="2019"/><line class="cls-2" x1="167.1" y1="-383.1" x2="167.1" y2="2019"/><line class="cls-2" x1="317.1" y1="-383.1" x2="317.1" y2="2019"/><line class="cls-2" x1="467.1" y1="-383.1" x2="467.1" y2="2019"/><line class="cls-2" x1="617.1" y1="-383.1" x2="617.1" y2="2019"/><line class="cls-2" x1="767.1" y1="-383.1" x2="767.1" y2="2019"/><line class="cls-2" x1="917.1" y1="-383.1" x2="917.1" y2="2019"/><line class="cls-2" x1="1067.1" y1="-383.1" x2="1067.1" y2="2019"/></g></g></svg>