<?xml version="1.0" encoding="UTF-8"?><svg id="Layer_2" xmlns="http://www.w3.org/2000/svg" xmlns:xlink="http://www.w3.org/1999/xlink" viewBox="0 0 5401.5 1648.3"><defs><style>.cls-1,.cls-2{fill:none;}.cls-2{stroke:#3c5a1d;stroke-miterlimit:10;stroke-width:1.5px;}.cls-3{clip-path:url(#clippath);}</style><clipPath id="clippath"><rect class="cls-1" x="2385.5" y="25.1" width="1080" height="1440"/></clipPath></defs><g id="Layer_1-2"><g class="cls-3"><path class="cls-2" d="M.8,177.6C.8,94.8,67.9,27.6,150.8,27.6s150,67.2,150,150"/><path class="cls-2" d="M300.8,177.6c0-82.8,67.2-150,150-150s150,67.2,150,150"/><path class="cls-2" d="M600.7,177.6c0-82.8,67.2-150,150-150s150,67.2,150,150"/><path class="cls-2" d="M900.7,177.6c0-82.8,67.2-150,150-150s150,67.2,150,150"/><path class="cls-2" d="M1200.7,177.6c0-82.8,67.2-150,150-150s150,67.2,150,150"/><path class="cls-2" d="M1500.7,177.6c0-82.8,67.2-150,150-150s150,67.2,150,150"/><path class="cls-2" d="M1800.7,177.6c0-82.8,67.2-150,150-150s150,67.2,150,150"/><path class="cls-2" d="M2100.7,177.6c0-82.8,67.2-150,150-150s150,67.2,150,150"/><path class="cls-2" d="M2400.8,177.6c0-82.8,67.2-150,150-150s150,67.2,150,150"/><path class="cls-2" d="M2700.8,177.6c0-82.8,67.2-150,150-150s150,67.2,150,150"/><path class="cls-2" d="M3000.7,177.6c0-82.8,67.2-150,150-150s150,67.2,150,150"/><path class="cls-2" d="M3300.7,177.6c0-82.8,67.2-150,150-150s150,67.2,150,150"/><path class="cls-2" d="M3600.7,177.6c0-82.8,67.2-150,150-150s150,67.2,150,150"/><path class="cls-2" d="M150.8,327.6c0-82.8,67.2-150,150-150s150,67.2,150,150"/><path class="cls-2" d="M450.8,327.6c0-82.8,67.2-150,150-150s150,67.2,150,150"/><path class="cls-2" d="M750.7,327.6c0-82.8,67.2-150,150-150s150,67.2,150,150"/><path class="cls-2" d="M1050.7,327.6c0-82.8,67.2-150,150-150s150,67.2,150,150"/><path class="cls-2" d="M1350.7,327.6c0-82.8,67.2-150,150-150s150,67.2,150,150"/><path class="cls-2" d="M1650.7,327.6c0-82.8,67.2-150,150-150s150,67.2,150,150"/><path class="cls-2" d="M1950.7,327.6c0-82.8,67.2-150,150-150s150,67.2,150,150"/><path class="cls-2" d="M2250.7,327.6c0-82.8,67.2-150,150-150s150,67.2,150,150"/><path class="cls-2" d="M2550.8,327.6c0-82.8,67.2-150,150-150s150,67.2,150,150"/><path class="cls-2" d="M2850.8,327.6c0-82.8,67.2-150,150-150s150,67.2,150,150"/><path class="cls-2" d="M3150.7,327.6c0-82.8,67.2-150,150-150s150,67.2,150,150"/><path class="cls-2" d="M3450.7,327.6c0-82.8,67.2-150,150-150s150,67.2,150,150"/><path class="cls-2" d="M3750.7,327.6c0-82.8,67.2-150,150-150s150,67.2,150,150"/><path class="cls-2" d="M300.8,477.6c0-82.8,67.2-150,150-150s150,67.2,150,150"/><path class="cls-2" d="M600.8,477.6c0-82.8,67.2-150,150-150s150,67.2,150,150"/><path class="cls-2" d="M900.7,477.6c0-82.8,67.2-150,150-150s150,67.2,150,150"/><path class="cls-2" d="M1200.7,477.6c0-82.8,67.2-150,150-150s150,67.2,150,150"/><path class="cls-2" d="M1500.7,477.6c0-82.8,67.2-150,150-150s150,67.2,150,150"/><path class="cls-2" d="M1800.7,477.6c0-82.8,67.2-150,150-150s150,67.2,150,150"/><path class="cls-2" d="M2100.7,477.6c0-82.8,67.2-150,150-150s150,67.2,150,150"/><path class="cls-2" d="M2400.7,477.6c0-82.8,67.2-150,150-150s150,67.2,150,150"/><path class="cls-2" d="M2700.8,477.6c0-82.8,67.2-150,150-150s150,67.2,150,150"/><path class="cls-2" d="M3000.7,477.6c0-82.8,67.2-150,150-150s150,67.2,150,150"/><path class="cls-2" d="M3300.7,477.6c0-82.8,67.2-150,150-150s150,67.2,150,150"/><path class="cls-2" d="M3600.7,477.6c0-82.8,67.2-150,150-150s150,67.2,150,150"/><path class="cls-2" d="M3900.7,477.6c0-82.8,67.2-150,150-150s150,67.2,150,150"/><path class="cls-2" d="M450.8,627.6c0-82.8,67.2-150,150-150s150,67.2,150,150"/><path class="cls-2" d="M750.8,627.6c0-82.8,67.2-150,150-150s150,67.2,150,150"/><path class="cls-2" d="M1050.7,627.6c0-82.8,67.2-150,150-150s150,67.2,150,150"/><path class="cls-2" d="M1350.7,627.6c0-82.8,67.2-150,150-150s150,67.2,150,150"/><path class="cls-2" d="M1650.7,627.6c0-82.8,67.2-150,150-150s150,67.2,150,150"/><path class="cls-2" d="M1950.7,627.6c0-82.8,67.2-150,150-150s150,67.2,150,150"/><path class="cls-2" d="M2250.7,627.6c0-82.8,67.2-150,150-150s150,67.2,150,150"/><path class="cls-2" d="M2550.7,627.6c0-82.8,67.2-150,150-150s150,67.2,150,150"/><path class="cls-2" d="M2850.8,627.6c0-82.8,67.2-150,150-150s150,67.2,150,150"/><path class="cls-2" d="M3150.7,627.6c0-82.8,67.2-150,150-150s150,67.2,150,150"/><path class="cls-2" d="M3450.7,627.6c0-82.8,67.2-150,150-150s150,67.2,150,150"/><path class="cls-2" d="M3750.7,627.6c0-82.8,67.2-150,150-150s150,67.2,150,150"/><path class="cls-2" d="M4050.7,627.6c0-82.8,67.2-150,150-150s150,67.2,150,150"/><path class="cls-2" d="M600.8,777.6c0-82.8,67.2-150,150-150s150,67.2,150,150"/><path class="cls-2" d="M900.8,777.6c0-82.8,67.2-150,150-150s150,67.2,150,150"/><path class="cls-2" d="M1200.7,777.6c0-82.8,67.2-150,150-150s150,67.2,150,150"/><path class="cls-2" d="M1500.7,777.6c0-82.8,67.2-150,150-150s150,67.2,150,150"/><path class="cls-2" d="M1800.7,777.6c0-82.8,67.2-150,150-150s150,67.2,150,150"/><path class="cls-2" d="M2100.7,777.6c0-82.8,67.2-150,150-150s150,67.2,150,150"/><path class="cls-2" d="M2400.7,777.6c0-82.8,67.2-150,150-150s150,67.2,150,150"/><path class="cls-2" d="M2700.7,777.6c0-82.8,67.2-150,150-150s150,67.2,150,150"/><path class="cls-2" d="M3000.7,777.6c0-82.8,67.2-150,150-150s150,67.2,150,150"/><path class="cls-2" d="M3300.7,777.6c0-82.8,67.2-150,150-150s150,67.2,150,150"/><path class="cls-2" d="M3600.7,777.6c0-82.8,67.2-150,150-150s150,67.2,150,150"/><path class="cls-2" d="M3900.7,777.6c0-82.8,67.2-150,150-150s150,67.2,150,150"/><path class="cls-2" d="M4200.7,777.6c0-82.8,67.2-150,150-150s150,67.2,150,150"/><path class="cls-2" d="M750.8,927.6c0-82.8,67.2-150,150-150s150,67.2,150,150"/><path class="cls-2" d="M1050.8,927.6c0-82.8,67.2-150,150-150s150,67.2,150,150"/><path class="cls-2" d="M1350.7,927.6c0-82.8,67.2-150,150-150s150,67.2,150,150"/><path class="cls-2" d="M1650.7,927.6c0-82.8,67.2-150,150-150s150,67.2,150,150"/><path class="cls-2" d="M1950.7,927.6c0-82.8,67.2-150,150-150s150,67.2,150,150"/><path class="cls-2" d="M2250.7,927.6c0-82.8,67.2-150,150-150s150,67.2,150,150"/><path class="cls-2" d="M2550.7,927.6c0-82.8,67.2-150,150-150s150,67.2,150,150"/><path class="cls-2" d="M2850.7,927.6c0-82.8,67.2-150,150-150s150,67.2,150,150"/><path class="cls-2" d="M3150.7,927.6c0-82.8,67.2-150,150-150s150,67.2,150,150"/><path class="cls-2" d="M3450.7,927.6c0-82.8,67.2-150,150-150s150,67.2,150,150"/><path class="cls-2" d="M3750.7,927.6c0-82.8,67.2-150,150-150s150,67.2,150,150"/><path class="cls-2" d="M4050.7,927.6c0-82.8,67.2-150,150-150s150,67.2,150,150"/><path class="cls-2" d="M4350.7,927.6c0-82.8,67.2-150,150-150s150,67.2,150,150"/><path class="cls-2" d="M900.8,1077.6c0-82.8,67.2-150,150-150s150,67.2,150,150"/><path class="cls-2" d="M1200.8,1077.6c0-82.8,67.2-150,150-150s150,67.2,150,150"/><path class="cls-2" d="M1500.7,1077.6c0-82.8,67.2-150,150-150s150,67.2,150,150"/><path class="cls-2" d="M1800.7,1077.6c0-82.8,67.2-150,150-150s150,67.2,150,150"/><path class="cls-2" d="M2100.7,1077.6c0-82.8,67.2-150,150-150s150,67.2,150,150"/><path class="cls-2" d="M2400.7,1077.6c0-82.8,67.2-150,150-150s150,67.2,150,150"/><path class="cls-2" d="M2700.7,1077.6c0-82.8,67.2-150,150-150s150,67.2,150,150"/><path class="cls-2" d="M3000.7,1077.6c0-82.8,67.2-150,150-150s150,67.2,150,150"/><path class="cls-2" d="M3300.7,1077.6c0-82.8,67.2-150,150-150s150,67.2,150,150"/><path class="cls-2" d="M3600.7,1077.6c0-82.8,67.2-150,150-150s150,67.2,150,150"/><path class="cls-2" d="M3900.7,1077.6c0-82.8,67.2-150,150-150s150,67.2,150,150"/><path class="cls-2" d="M4200.7,1077.6c0-82.8,67.2-150,150-150s150,67.2,150,150"/><path class="cls-2" d="M4500.7,1077.6c0-82.8,67.2-150,150-150s150,67.2,150,150"/><path class="cls-2" d="M1050.8,1227.6c0-82.8,67.2-150,150-150s150,67.2,150,150"/><path class="cls-2" d="M1350.8,1227.6c0-82.8,67.2-150,150-150s150,67.2,150,150"/><path class="cls-2" d="M1650.7,1227.6c0-82.8,67.2-150,150-150s150,67.2,150,150"/><path class="cls-2" d="M1950.7,1227.6c0-82.8,67.2-150,150-150s150,67.2,150,150"/><path class="cls-2" d="M2250.7,1227.6c0-82.8,67.2-150,150-150s150,67.2,150,150"/><path class="cls-2" d="M2550.7,1227.6c0-82.8,67.2-150,150-150s150,67.2,150,150"/><path class="cls-2" d="M2850.7,1227.6c0-82.8,67.2-150,150-150s150,67.2,150,150"/><path class="cls-2" d="M3150.7,1227.6c0-82.8,67.2-150,150-150s150,67.2,150,150"/><path class="cls-2" d="M3450.7,1227.6c0-82.8,67.2-150,150-150s150,67.2,150,150"/><path class="cls-2" d="M3750.7,1227.6c0-82.8,67.2-150,150-150s150,67.2,150,150"/><path class="cls-2" d="M4050.7,1227.6c0-82.8,67.2-150,150-150s150,67.2,150,150"/><path class="cls-2" d="M4350.7,1227.6c0-82.8,67.2-150,150-150s150,67.2,150,150"/><path class="cls-2" d="M4650.7,1227.6c0-82.8,67.2-150,150-150s150,67.2,150,150"/><path class="cls-2" d="M1200.8,1377.6c0-82.8,67.2-150,150-150s150,67.2,150,150"/><path class="cls-2" d="M1500.8,1377.6c0-82.8,67.2-150,150-150s150,67.2,150,150"/><path class="cls-2" d="M1800.7,1377.6c0-82.8,67.2-150,150-150s150,67.2,150,150"/><path class="cls-2" d="M2100.7,1377.6c0-82.8,67.2-150,150-150s150,67.2,150,150"/><path class="cls-2" d="M2400.7,1377.6c0-82.8,67.2-150,150-150s150,67.2,150,150"/><path class="cls-2" d="M2700.7,1377.6c0-82.8,67.2-150,150-150s150,67.2,150,150"/><path class="cls-2" d="M3000.7,1377.6c0-82.8,67.2-150,150-150s150,67.2,150,150"/><path class="cls-2" d="M3300.7,1377.6c0-82.8,67.2-150,150-150s150,67.2,150,150"/><path class="cls-2" d="M3600.7,1377.6c0-82.8,67.2-150,150-150s150,67.2,150,150"/><path class="cls-2" d="M3900.7,1377.6c0-82.8,67.2-150,150-150s150,67.2,150,150"/><path class="cls-2" d="M4200.7,1377.6c0-82.8,67.2-150,150-150s150,67.2,150,150"/><path class="cls-2" d="M4500.7,1377.6c0-82.8,67.2-150,150-150s150,67.2,150,150"/><path class="cls-2" d="M4800.7,1377.6c0-82.8,67.2-150,150-150s150,67.2,150,150"/><path class="cls-2" d="M1350.8,1527.6c0-82.8,67.2-150,150-150s150,67.2,150,150"/><path class="cls-2" d="M1650.8,1527.6c0-82.8,67.2-150,150-150s150,67.2,150,150"/><path class="cls-2" d="M1950.7,1527.6c0-82.8,67.2-150,150-150s150,67.2,150,150"/><path class="cls-2" d="M2250.7,1527.6c0-82.8,67.2-150,150-150s150,67.2,150,150"/><path class="cls-2" d="M2550.7,1527.6c0-82.8,67.2-150,150-150s150,67.2,150,150"/><path class="cls-2" d="M2850.7,1527.6c0-82.8,67.2-150,150-150s150,67.2,150,150"/><path class="cls-2" d="M3150.7,1527.6c0-82.8,67.2-150,150-150s150,67.2,150,150"/><path class="cls-2" d="M3450.7,1527.6c0-82.8,67.2-150,150-150s150,67.2,150,150"/><path class="cls-2" d="M3750.7,1527.6c0-82.8,67.2-150,150-150s150,67.2,150,150"/><path class="cls-2" d="M4050.7,1527.6c0-82.8,67.2-150,150-150s150,67.2,150,150"/><path class="cls-2" d="M4350.7,1527.6c0-82.8,67.2-150,150-150s150,67.2,150,150"/><path class="cls-2" d="M4650.7,1527.6c0-82.8,67.2-150,150-150s150,67.2,150,150"/><path class="cls-2" d="M4950.7,1527.6c0-82.8,67.2-150,150-150s150,67.2,150,150"/><path class="cls-2" d="M150.8,177.6c0-82.8,67.2-150,150-150s150,67.2,150,150"/><path class="cls-2" d="M450.8,177.6c0-82.8,67.2-150,150-150s150,67.2,150,150"/><path class="cls-2" d="M750.7,177.6c0-82.8,67.2-150,150-150s150,67.2,150,150"/><path class="cls-2" d="M1050.7,177.6c0-82.8,67.2-150,150-150s150,67.2,150,150"/><path class="cls-2" d="M1350.7,177.6c0-82.8,67.2-150,150-150s150,67.2,150,150"/><path class="cls-2" d="M1650.7,177.6c0-82.8,67.2-150,150-150s150,67.2,150,150"/><path class="cls-2" d="M1950.7,177.6c0-82.8,67.2-150,150-150s150,67.2,150,150"/><path class="cls-2" d="M2250.7,177.6c0-82.8,67.2-150,150-150s150,67.2,150,150"/><path class="cls-2" d="M2550.8,177.6c0-82.8,67.2-150,150-150s150,67.2,150,150"/><path class="cls-2" d="M2850.8,177.6c0-82.8,67.2-150,150-150s150,67.2,150,150"/><path class="cls-2" d="M3150.7,177.6c0-82.8,67.2-150,150-150s150,67.2,150,150"/><path class="cls-2" d="M3450.7,177.6c0-82.8,67.2-150,150-150s150,67.2,150,150"/><path class="cls-2" d="M3750.7,177.6c0-82.8,67.2-150,150-150s150,67.2,150,150"/><path class="cls-2" d="M300.8,327.6c0-82.8,67.2-150,150-150s150,67.2,150,150"/><path class="cls-2" d="M600.8,327.6c0-82.8,67.2-150,150-150s150,67.2,150,150"/><path class="cls-2" d="M900.7,327.6c0-82.8,67.2-150,150-150s150,67.2,150,150"/><path class="cls-2" d="M1200.7,327.6c0-82.8,67.2-150,150-150s150,67.2,150,150"/><path class="cls-2" d="M1500.7,327.6c0-82.8,67.2-150,150-150s150,67.2,150,150"/><path class="cls-2" d="M1800.7,327.6c0-82.8,67.2-150,150-150s150,67.2,150,150"/><path class="cls-2" d="M2100.7,327.6c0-82.8,67.2-150,150-150s150,67.2,150,150"/><path class="cls-2" d="M2400.7,327.6c0-82.8,67.2-150,150-150s150,67.2,150,150"/><path class="cls-2" d="M2700.8,327.6c0-82.8,67.2-150,150-150s150,67.2,150,150"/><path class="cls-2" d="M3000.7,327.6c0-82.8,67.2-150,150-150s150,67.2,150,150"/><path class="cls-2" d="M3300.7,327.6c0-82.8,67.2-150,150-150s150,67.2,150,150"/><path class="cls-2" d="M3600.7,327.6c0-82.8,67.2-150,150-150s150,67.2,150,150"/><path class="cls-2" d="M3900.7,327.6c0-82.8,67.2-150,150-150s150,67.2,150,150"/><path class="cls-2" d="M450.8,477.6c0-82.8,67.2-150,150-150s150,67.2,150,150"/><path class="cls-2" d="M750.8,477.6c0-82.8,67.2-150,150-150s150,67.2,150,150"/><path class="cls-2" d="M1050.7,477.6c0-82.8,67.2-150,150-150s150,67.2,150,150"/><path class="cls-2" d="M1350.7,477.6c0-82.8,67.2-150,150-150s150,67.2,150,150"/><path class="cls-2" d="M1650.7,477.6c0-82.8,67.2-150,150-150s150,67.2,150,150"/><path class="cls-2" d="M1950.7,477.6c0-82.8,67.2-150,150-150s150,67.2,150,150"/><path class="cls-2" d="M2250.7,477.6c0-82.8,67.2-150,150-150s150,67.2,150,150"/><path class="cls-2" d="M2550.7,477.6c0-82.8,67.2-150,150-150s150,67.2,150,150"/><path class="cls-2" d="M2850.8,477.6c0-82.8,67.2-150,150-150s150,67.2,150,150"/><path class="cls-2" d="M3150.7,477.6c0-82.8,67.2-150,150-150s150,67.2,150,150"/><path class="cls-2" d="M3450.7,477.6c0-82.8,67.2-150,150-150s150,67.2,150,150"/><path class="cls-2" d="M3750.7,477.6c0-82.8,67.2-150,150-150s150,67.2,150,150"/><path class="cls-2" d="M4050.7,477.6c0-82.8,67.2-150,150-150s150,67.2,150,150"/><path class="cls-2" d="M600.8,627.6c0-82.8,67.2-150,150-150s150,67.2,150,150"/><path class="cls-2" d="M900.8,627.6c0-82.8,67.2-150,150-150s150,67.2,150,150"/><path class="cls-2" d="M1200.7,627.6c0-82.8,67.2-150,150-150s150,67.2,150,150"/><path class="cls-2" d="M1500.7,627.6c0-82.8,67.2-150,150-150s150,67.2,150,150"/><path class="cls-2" d="M1800.7,627.6c0-82.8,67.2-150,150-150s150,67.2,150,150"/><path class="cls-2" d="M2100.7,627.6c0-82.8,67.2-150,150-150s150,67.2,150,150"/><path class="cls-2" d="M2400.7,627.6c0-82.8,67.2-150,150-150s150,67.2,150,150"/><path class="cls-2" d="M2700.7,627.6c0-82.8,67.2-150,150-150s150,67.2,150,150"/><path class="cls-2" d="M3000.7,627.6c0-82.8,67.2-150,150-150s150,67.2,150,150"/><path class="cls-2" d="M3300.7,627.6c0-82.8,67.2-150,150-150s150,67.2,150,150"/><path class="cls-2" d="M3600.7,627.6c0-82.8,67.2-150,150-150s150,67.2,150,150"/><path class="cls-2" d="M3900.7,627.6c0-82.8,67.2-150,150-150s150,67.2,150,150"/><path class="cls-2" d="M4200.7,627.6c0-82.8,67.2-150,150-150s150,67.2,150,150"/><path class="cls-2" d="M750.8,777.6c0-82.8,67.2-150,150-150s150,67.2,150,150"/><path class="cls-2" d="M1050.8,777.6c0-82.8,67.2-150,150-150s150,67.2,150,150"/><path class="cls-2" d="M1350.7,777.6c0-82.8,67.2-150,150-150s150,67.2,150,150"/><path class="cls-2" d="M1650.7,777.6c0-82.8,67.2-150,150-150s150,67.2,150,150"/><path class="cls-2" d="M1950.7,777.6c0-82.8,67.2-150,150-150s150,67.2,150,150"/><path class="cls-2" d="M2250.7,777.6c0-82.8,67.2-150,150-150s150,67.2,150,150"/><path class="cls-2" d="M2550.7,777.6c0-82.8,67.2-150,150-150s150,67.2,150,150"/><path class="cls-2" d="M2850.7,777.6c0-82.8,67.2-150,150-150s150,67.2,150,150"/><path class="cls-2" d="M3150.7,777.6c0-82.8,67.2-150,150-150s150,67.2,150,150"/><path class="cls-2" d="M3450.7,777.6c0-82.8,67.2-150,150-150s150,67.2,150,150"/><path class="cls-2" d="M3750.7,777.6c0-82.8,67.2-150,150-150s150,67.2,150,150"/><path class="cls-2" d="M4050.7,777.6c0-82.8,67.2-150,150-150s150,67.2,150,150"/><path class="cls-2" d="M4350.7,777.6c0-82.8,67.2-150,150-150s150,67.2,150,150"/><path class="cls-2" d="M900.8,927.6c0-82.8,67.2-150,150-150s150,67.2,150,150"/><path class="cls-2" d="M1200.8,927.6c0-82.8,67.2-150,150-150s150,67.2,150,150"/><path class="cls-2" d="M1500.7,927.6c0-82.8,67.2-150,150-150s150,67.2,150,150"/><path class="cls-2" d="M1800.7,927.6c0-82.8,67.2-150,150-150s150,67.2,150,150"/><path class="cls-2" d="M2100.7,927.6c0-82.8,67.2-150,150-150s150,67.2,150,150"/><path class="cls-2" d="M2400.7,927.6c0-82.8,67.2-150,150-150s150,67.2,150,150"/><path class="cls-2" d="M2700.7,927.6c0-82.8,67.2-150,150-150s150,67.2,150,150"/><path class="cls-2" d="M3000.7,927.6c0-82.8,67.2-150,150-150s150,67.2,150,150"/><path class="cls-2" d="M3300.7,927.6c0-82.8,67.2-150,150-150s150,67.2,150,150"/><path class="cls-2" d="M3600.7,927.6c0-82.8,67.2-150,150-150s150,67.2,150,150"/><path class="cls-2" d="M3900.7,927.6c0-82.8,67.2-150,150-150s150,67.2,150,150"/><path class="cls-2" d="M4200.7,927.6c0-82.8,67.2-150,150-150s150,67.2,150,150"/><path class="cls-2" d="M4500.7,927.6c0-82.8,67.2-150,150-150s150,67.2,150,150"/><path class="cls-2" d="M1050.8,1077.6c0-82.8,67.2-150,150-150s150,67.2,150,150"/><path class="cls-2" d="M1350.8,1077.6c0-82.8,67.2-150,150-150s150,67.2,150,150"/><path class="cls-2" d="M1650.7,1077.6c0-82.8,67.2-150,150-150s150,67.2,150,150"/><path class="cls-2" d="M1950.7,1077.6c0-82.8,67.2-150,150-150s150,67.2,150,150"/><path class="cls-2" d="M2250.7,1077.6c0-82.8,67.2-150,150-150s150,67.2,150,150"/><path class="cls-2" d="M2550.7,1077.6c0-82.8,67.2-150,150-150s150,67.2,150,150"/><path class="cls-2" d="M2850.7,1077.6c0-82.8,67.2-150,150-150s150,67.2,150,150"/><path class="cls-2" d="M3150.7,1077.6c0-82.8,67.2-150,150-150s150,67.2,150,150"/><path class="cls-2" d="M3450.7,1077.6c0-82.8,67.2-150,150-150s150,67.2,150,150"/><path class="cls-2" d="M3750.7,1077.6c0-82.8,67.2-150,150-150s150,67.2,150,150"/><path class="cls-2" d="M4050.7,1077.6c0-82.8,67.2-150,150-150s150,67.2,150,150"/><path class="cls-2" d="M4350.7,1077.6c0-82.8,67.2-150,150-150s150,67.2,150,150"/><path class="cls-2" d="M4650.7,1077.6c0-82.8,67.2-150,150-150s150,67.2,150,150"/><path class="cls-2" d="M1200.8,1227.6c0-82.8,67.2-150,150-150s150,67.2,150,150"/><path class="cls-2" d="M1500.8,1227.6c0-82.8,67.2-150,150-150s150,67.2,150,150"/><path class="cls-2" d="M1800.7,1227.6c0-82.8,67.2-150,150-150s150,67.2,150,150"/><path class="cls-2" d="M2100.7,1227.6c0-82.8,67.2-150,150-150s150,67.2,150,150"/><path class="cls-2" d="M2400.7,1227.6c0-82.8,67.2-150,150-150s150,67.2,150,150"/><path class="cls-2" d="M2700.7,1227.6c0-82.8,67.2-150,150-150s150,67.2,150,150"/><path class="cls-2" d="M3000.7,1227.6c0-82.8,67.2-150,150-150s150,67.2,150,150"/><path class="cls-2" d="M3300.7,1227.6c0-82.8,67.2-150,150-150s150,67.2,150,150"/><path class="cls-2" d="M3600.7,1227.6c0-82.8,67.2-150,150-150s150,67.2,150,150"/><path class="cls-2" d="M3900.7,1227.6c0-82.8,67.2-150,150-150s150,67.2,150,150"/><path class="cls-2" d="M4200.7,1227.6c0-82.8,67.2-150,150-150s150,67.2,150,150"/><path class="cls-2" d="M4500.7,1227.6c0-82.8,67.2-150,150-150s150,67.2,150,150"/><path class="cls-2" d="M4800.7,1227.6c0-82.8,67.2-150,150-150s150,67.2,150,150"/><path class="cls-2" d="M1350.8,1377.6c0-82.8,67.2-150,150-150s150,67.2,150,150"/><path class="cls-2" d="M1650.8,1377.6c0-82.8,67.2-150,150-150s150,67.2,150,150"/><path class="cls-2" d="M1950.7,1377.6c0-82.8,67.2-150,150-150s150,67.2,150,150"/><path class="cls-2" d="M2250.7,1377.6c0-82.8,67.2-150,150-150s150,67.2,150,150"/><path class="cls-2" d="M2550.7,1377.6c0-82.8,67.2-150,150-150s150,67.2,150,150"/><path class="cls-2" d="M2850.7,1377.6c0-82.8,67.2-150,150-150s150,67.2,150,150"/><path class="cls-2" d="M3150.7,1377.6c0-82.8,67.2-150,150-150s150,67.2,150,150"/><path class="cls-2" d="M3450.7,1377.6c0-82.8,67.2-150,150-150s150,67.2,150,150"/><path class="cls-2" d="M3750.7,1377.6c0-82.8,67.2-150,150-150s150,67.2,150,150"/><path class="cls-2" d="M4050.7,1377.6c0-82.8,67.2-150,150-150s150,67.2,150,150"/><path class="cls-2" d="M4350.7,1377.6c0-82.8,67.2-150,150-150s150,67.2,150,150"/><path class="cls-2" d="M4650.7,1377.6c0-82.8,67.2-150,150-150s150,67.2,150,150"/><path class="cls-2" d="M4950.7,1377.6c0-82.8,67.2-150,150-150s150,67.2,150,150"/><path class="cls-2" d="M1500.8,1527.6c0-82.8,67.2-150,150-150s150,67.2,150,150"/><path class="cls-2" d="M1800.8,1527.6c0-82.8,67.2-150,150-150s150,67.2,150,150"/><path class="cls-2" d="M2100.7,1527.6c0-82.8,67.2-150,150-150s150,67.2,150,150"/><path class="cls-2" d="M2400.7,1527.6c0-82.8,67.2-150,150-150s150,67.2,150,150"/><path class="cls-2" d="M2700.7,1527.6c0-82.8,67.2-150,150-150s150,67.2,150,150"/><path class="cls-2" d="M3000.7,1527.6c0-82.8,67.2-150,150-150s150,67.2,150,150"/><path class="cls-2" d="M3300.7,1527.6c0-82.8,67.2-150,150-150s150,67.2,150,150"/><path class="cls-2" d="M3600.7,1527.6c0-82.8,67.2-150,150-150s150,67.2,150,150"/><path class="cls-2" d="M3900.7,1527.6c0-82.8,67.2-150,150-150s150,67.2,150,150"/><path class="cls-2" d="M4200.7,1527.6c0-82.8,67.2-150,150-150s150,67.2,150,150"/><path class="cls-2" d="M4500.7,1527.6c0-82.8,67.2-150,150-150s150,67.2,150,150"/><path class="cls-2" d="M4800.7,1527.6c0-82.8,67.2-150,150-150s150,67.2,150,150"/><path class="cls-2" d="M5100.7,1527.6c0-82.8,67.2-150,150-150s150,67.2,150,150"/><line class="cls-2" x1="2250.7" x2="2250.7" y2="1648.3"/><line class="cls-2" x1="2100.7" x2="2100.7" y2="1648.3"/><line class="cls-2" x1="1950.7" x2="1950.7" y2="1648.3"/><line class="cls-2" x1="1800.7" x2="1800.7" y2="1648.3"/><line class="cls-2" x1="1650.7" x2="1650.7" y2="1648.3"/><line class="cls-2" x1="1500.7" x2="1500.7" y2="1648.3"/><line class="cls-2" x1="2400.7" x2="2400.7" y2="1648.3"/><line class="cls-2" x1="2550.7" x2="2550.7" y2="1648.3"/><line class="cls-2" x1="2700.7" x2="2700.7" y2="1648.3"/><line class="cls-2" x1="2850.7" x2="2850.7" y2="1648.3"/><line class="cls-2" x1="3000.7" x2="3000.7" y2="1648.3"/><line class="cls-2" x1="3150.7" x2="3150.7" y2="1648.3"/><line class="cls-2" x1="3300.7" x2="3300.7" y2="1648.3"/><line class="cls-2" x1="3450.7" x2="3450.7" y2="1648.3"/><line class="cls-2" x1="3600.7" x2="3600.7" y2="1648.3"/><line class="cls-2" x1="3750.7" x2="3750.7" y2="1648.3"/><line class="cls-2" x1="3900.7" x2="3900.7" y2="1648.3"/><line class="cls-2" x1="4050.7" x2="4050.7" y2="1648.3"/></g></g></svg>