<?xml version="1.0" encoding="UTF-8"?><svg id="Layer_2" xmlns="http://www.w3.org/2000/svg" xmlns:xlink="http://www.w3.org/1999/xlink" viewBox="0 0 1440 1080"><defs><style>.cls-1,.cls-2{fill:none;}.cls-2{stroke:#3c5a1d;stroke-miterlimit:10;stroke-width:1.5px;}.cls-3{clip-path:url(#clippath);}</style><clipPath id="clippath"><rect class="cls-1" x="180" y="-180" width="1080" height="1440" transform="translate(1260 -180) rotate(90)"/></clipPath></defs><g id="Layer_1-2"><g class="cls-3"><path class="cls-2" d="M-299.4,149.2C-299.4,66.3-232.2-.8-149.4-.8S.6,66.3.6,149.2"/><path class="cls-2" d="M.6,149.2C.6,66.3,67.8-.8,150.6-.8s150,67.2,150,150"/><path class="cls-2" d="M300.6,149.2C300.6,66.3,367.8-.8,450.6-.8s150,67.2,150,150"/><path class="cls-2" d="M600.6,149.2C600.6,66.3,667.8-.8,750.6-.8s150,67.2,150,150"/><path class="cls-2" d="M900.6,149.2c0-82.8,67.2-150,150-150s150,67.2,150,150"/><path class="cls-2" d="M1200.6,149.2c0-82.8,67.2-150,150-150s150,67.2,150,150"/><path class="cls-2" d="M-149.4,299.2c0-82.8,67.2-150,150-150s150,67.2,150,150"/><path class="cls-2" d="M150.6,299.2c0-82.8,67.2-150,150-150s150,67.2,150,150"/><path class="cls-2" d="M450.6,299.2c0-82.8,67.2-150,150-150s150,67.2,150,150"/><path class="cls-2" d="M750.6,299.2c0-82.8,67.2-150,150-150s150,67.2,150,150"/><path class="cls-2" d="M1050.6,299.2c0-82.8,67.2-150,150-150s150,67.2,150,150"/><path class="cls-2" d="M1350.6,299.2c0-82.8,67.2-150,150-150s150,67.2,150,150"/><path class="cls-2" d="M-299.4,449.2c0-82.8,67.2-150,150-150S.6,366.3.6,449.2"/><path class="cls-2" d="M.6,449.2c0-82.8,67.2-150,150-150s150,67.2,150,150"/><path class="cls-2" d="M300.6,449.2c0-82.8,67.2-150,150-150s150,67.2,150,150"/><path class="cls-2" d="M600.6,449.2c0-82.8,67.2-150,150-150s150,67.2,150,150"/><path class="cls-2" d="M900.6,449.2c0-82.8,67.2-150,150-150s150,67.2,150,150"/><path class="cls-2" d="M1200.6,449.2c0-82.8,67.2-150,150-150s150,67.2,150,150"/><path class="cls-2" d="M-149.4,599.2c0-82.8,67.2-150,150-150s150,67.2,150,150"/><path class="cls-2" d="M150.6,599.2c0-82.8,67.2-150,150-150s150,67.2,150,150"/><path class="cls-2" d="M450.6,599.2c0-82.8,67.2-150,150-150s150,67.2,150,150"/><path class="cls-2" d="M750.6,599.2c0-82.8,67.2-150,150-150s150,67.2,150,150"/><path class="cls-2" d="M1050.6,599.2c0-82.8,67.2-150,150-150s150,67.2,150,150"/><path class="cls-2" d="M1350.6,599.2c0-82.8,67.2-150,150-150s150,67.2,150,150"/><path class="cls-2" d="M-299.4,749.2c0-82.8,67.2-150,150-150S.6,666.3.6,749.2"/><path class="cls-2" d="M.6,749.2c0-82.8,67.2-150,150-150s150,67.2,150,150"/><path class="cls-2" d="M300.6,749.2c0-82.8,67.2-150,150-150s150,67.2,150,150"/><path class="cls-2" d="M600.6,749.2c0-82.8,67.2-150,150-150s150,67.2,150,150"/><path class="cls-2" d="M900.6,749.2c0-82.8,67.2-150,150-150s150,67.2,150,150"/><path class="cls-2" d="M1200.6,749.2c0-82.8,67.2-150,150-150s150,67.2,150,150"/><path class="cls-2" d="M-149.4,899.2c0-82.8,67.2-150,150-150s150,67.2,150,150"/><path class="cls-2" d="M150.6,899.2c0-82.8,67.2-150,150-150s150,67.2,150,150"/><path class="cls-2" d="M450.6,899.2c0-82.8,67.2-150,150-150s150,67.2,150,150"/><path class="cls-2" d="M750.6,899.2c0-82.8,67.2-150,150-150s150,67.2,150,150"/><path class="cls-2" d="M1050.6,899.2c0-82.8,67.2-150,150-150s150,67.2,150,150"/><path class="cls-2" d="M1350.6,899.2c0-82.8,67.2-150,150-150s150,67.2,150,150"/><path class="cls-2" d="M-299.4,1049.2c0-82.8,67.2-150,150-150S.6,966.3.6,1049.2"/><path class="cls-2" d="M.6,1049.2c0-82.8,67.2-150,150-150s150,67.2,150,150"/><path class="cls-2" d="M300.6,1049.2c0-82.8,67.2-150,150-150s150,67.2,150,150"/><path class="cls-2" d="M600.6,1049.2c0-82.8,67.2-150,150-150s150,67.2,150,150"/><path class="cls-2" d="M900.6,1049.2c0-82.8,67.2-150,150-150s150,67.2,150,150"/><path class="cls-2" d="M1200.6,1049.2c0-82.8,67.2-150,150-150s150,67.2,150,150"/><path class="cls-2" d="M-149.4,1199.2c0-82.8,67.2-150,150-150s150,67.2,150,150"/><path class="cls-2" d="M150.6,1199.2c0-82.8,67.2-150,150-150s150,67.2,150,150"/><path class="cls-2" d="M450.6,1199.2c0-82.8,67.2-150,150-150s150,67.2,150,150"/><path class="cls-2" d="M750.6,1199.2c0-82.8,67.2-150,150-150s150,67.2,150,150"/><path class="cls-2" d="M1050.6,1199.2c0-82.8,67.2-150,150-150s150,67.2,150,150"/><path class="cls-2" d="M1350.6,1199.2c0-82.8,67.2-150,150-150s150,67.2,150,150"/><path class="cls-2" d="M-149.4,149.2C-149.4,66.3-82.2-.8.6-.8s150,67.2,150,150"/><path class="cls-2" d="M150.6,149.2C150.6,66.3,217.8-.8,300.6-.8s150,67.2,150,150"/><path class="cls-2" d="M450.6,149.2C450.6,66.3,517.8-.8,600.6-.8s150,67.2,150,150"/><path class="cls-2" d="M750.6,149.2C750.6,66.3,817.8-.8,900.6-.8s150,67.2,150,150"/><path class="cls-2" d="M1050.6,149.2c0-82.8,67.2-150,150-150s150,67.2,150,150"/><path class="cls-2" d="M1350.6,149.2c0-82.8,67.2-150,150-150s150,67.2,150,150"/><path class="cls-2" d="M-299.4,299.2c0-82.8,67.2-150,150-150S.6,216.3.6,299.2"/><path class="cls-2" d="M.6,299.2c0-82.8,67.2-150,150-150s150,67.2,150,150"/><path class="cls-2" d="M300.6,299.2c0-82.8,67.2-150,150-150s150,67.2,150,150"/><path class="cls-2" d="M600.6,299.2c0-82.8,67.2-150,150-150s150,67.2,150,150"/><path class="cls-2" d="M900.6,299.2c0-82.8,67.2-150,150-150s150,67.2,150,150"/><path class="cls-2" d="M1200.6,299.2c0-82.8,67.2-150,150-150s150,67.2,150,150"/><path class="cls-2" d="M-149.4,449.2c0-82.8,67.2-150,150-150s150,67.2,150,150"/><path class="cls-2" d="M150.6,449.2c0-82.8,67.2-150,150-150s150,67.2,150,150"/><path class="cls-2" d="M450.6,449.2c0-82.8,67.2-150,150-150s150,67.2,150,150"/><path class="cls-2" d="M750.6,449.2c0-82.8,67.2-150,150-150s150,67.2,150,150"/><path class="cls-2" d="M1050.6,449.2c0-82.8,67.2-150,150-150s150,67.2,150,150"/><path class="cls-2" d="M1350.6,449.2c0-82.8,67.2-150,150-150s150,67.2,150,150"/><path class="cls-2" d="M-299.4,599.2c0-82.8,67.2-150,150-150S.6,516.3.6,599.2"/><path class="cls-2" d="M.6,599.2c0-82.8,67.2-150,150-150s150,67.2,150,150"/><path class="cls-2" d="M300.6,599.2c0-82.8,67.2-150,150-150s150,67.2,150,150"/><path class="cls-2" d="M600.6,599.2c0-82.8,67.2-150,150-150s150,67.2,150,150"/><path class="cls-2" d="M900.6,599.2c0-82.8,67.2-150,150-150s150,67.2,150,150"/><path class="cls-2" d="M1200.6,599.2c0-82.8,67.2-150,150-150s150,67.2,150,150"/><path class="cls-2" d="M-149.4,749.2c0-82.8,67.2-150,150-150s150,67.2,150,150"/><path class="cls-2" d="M150.6,749.2c0-82.8,67.2-150,150-150s150,67.2,150,150"/><path class="cls-2" d="M450.6,749.2c0-82.8,67.2-150,150-150s150,67.2,150,150"/><path class="cls-2" d="M750.6,749.2c0-82.8,67.2-150,150-150s150,67.2,150,150"/><path class="cls-2" d="M1050.6,749.2c0-82.8,67.2-150,150-150s150,67.2,150,150"/><path class="cls-2" d="M1350.6,749.2c0-82.8,67.2-150,150-150s150,67.2,150,150"/><path class="cls-2" d="M-299.4,899.2c0-82.8,67.2-150,150-150S.6,816.3.6,899.2"/><path class="cls-2" d="M.6,899.2c0-82.8,67.2-150,150-150s150,67.2,150,150"/><path class="cls-2" d="M300.6,899.2c0-82.8,67.2-150,150-150s150,67.2,150,150"/><path class="cls-2" d="M600.6,899.2c0-82.8,67.2-150,150-150s150,67.2,150,150"/><path class="cls-2" d="M900.6,899.2c0-82.8,67.2-150,150-150s150,67.2,150,150"/><path class="cls-2" d="M1200.6,899.2c0-82.8,67.2-150,150-150s150,67.2,150,150"/><path class="cls-2" d="M-149.4,1049.2c0-82.8,67.2-150,150-150s150,67.2,150,150"/><path class="cls-2" d="M150.6,1049.2c0-82.8,67.2-150,150-150s150,67.2,150,150"/><path class="cls-2" d="M450.6,1049.2c0-82.8,67.2-150,150-150s150,67.2,150,150"/><path class="cls-2" d="M750.6,1049.2c0-82.8,67.2-150,150-150s150,67.2,150,150"/><path class="cls-2" d="M1050.6,1049.2c0-82.8,67.2-150,150-150s150,67.2,150,150"/><path class="cls-2" d="M1350.6,1049.2c0-82.8,67.2-150,150-150s150,67.2,150,150"/><path class="cls-2" d="M-299.4,1199.2c0-82.8,67.2-150,150-150S.6,1116.3.6,1199.2"/><path class="cls-2" d="M.6,1199.2c0-82.8,67.2-150,150-150s150,67.2,150,150"/><path class="cls-2" d="M300.6,1199.2c0-82.8,67.2-150,150-150s150,67.2,150,150"/><path class="cls-2" d="M600.6,1199.2c0-82.8,67.2-150,150-150s150,67.2,150,150"/><path class="cls-2" d="M900.6,1199.2c0-82.8,67.2-150,150-150s150,67.2,150,150"/><path class="cls-2" d="M1200.6,1199.2c0-82.8,67.2-150,150-150s150,67.2,150,150"/><line class="cls-2" x1="600.6" y1="-178.4" x2="600.6" y2="1469.9"/><line class="cls-2" x1="450.6" y1="-178.4" x2="450.6" y2="1469.9"/><line class="cls-2" x1="300.6" y1="-178.4" x2="300.6" y2="1469.9"/><line class="cls-2" x1="150.6" y1="-178.4" x2="150.6" y2="1469.9"/><line class="cls-2" x1=".6" y1="-178.4" x2=".6" y2="1469.9"/><line class="cls-2" x1="750.6" y1="-178.4" x2="750.6" y2="1469.9"/><line class="cls-2" x1="900.6" y1="-178.4" x2="900.6" y2="1469.9"/><line class="cls-2" x1="1050.6" y1="-178.4" x2="1050.6" y2="1469.9"/><line class="cls-2" x1="1200.6" y1="-178.4" x2="1200.6" y2="1469.9"/><line class="cls-2" x1="1350.6" y1="-178.4" x2="1350.6" y2="1469.9"/></g></g></svg>